<svg width="221" height="65" viewBox="0 0 221 65" fill="none" xmlns="http://www.w3.org/2000/svg">
<path fill-rule="evenodd" clip-rule="evenodd" d="M8.59436 42.6319L0.0383606 18.8407C-0.08453 18.4943 0.0979015 18.1104 0.444356 17.9839C11.6934 13.9381 24.3691 10.1752 35.2048 5.55178C35.6889 5.24633 36.069 5.54809 36.2775 6.12547L49.7206 40.7766L53.371 50.9286C53.4939 51.2751 53.3151 51.6625 52.9687 51.7856L27.2447 61.036L17.2174 64.6423C16.8709 64.7691 16.4872 64.5866 16.3607 64.24L8.59436 42.6319Z" fill="white"/>
<path fill-rule="evenodd" clip-rule="evenodd" d="M15.7275 34.7376L11.4552 9.82123C11.3918 9.45611 11.6377 9.10965 11.999 9.0463L41.4217 4.00194L48.16 2.89174C48.5288 2.73152 49.1285 2.91776 49.2698 3.74118L56.5482 40.0875L58.3698 50.7202C58.4332 51.0817 58.1872 51.4317 57.826 51.4951L30.8839 56.1148L20.3798 57.9179C20.0185 57.9776 19.6683 57.7317 19.605 57.3703L15.7275 34.7376Z" fill="white"/>
<path fill-rule="evenodd" clip-rule="evenodd" d="M23.9707 27.3908V51.3459C23.9707 51.7298 24.2837 52.0463 24.6673 52.0463H35.7859H52.2462H54.6114H64.3035C64.6872 52.0463 65.0002 51.7298 65.0002 51.3459V40.0912V9.00161V8.6775H57.9228C57.2413 8.6775 55.8257 8.77437 55.8257 7.22833L55.8108 0.317383H24.6672C24.2835 0.317383 23.9705 0.630324 23.9705 1.0141V6.9936V9.52326V27.3908H23.9707Z" fill="white"/>
<path fill-rule="evenodd" clip-rule="evenodd" d="M12.1628 13.9528C8.17719 15.294 4.22883 16.6241 0.444356 17.9839C0.0979015 18.1105 -0.0845301 18.4941 0.0383606 18.8406L8.59436 42.6319L16.3607 64.24C16.4874 64.5864 16.8711 64.7689 17.2174 64.6423L27.2448 61.036L50.0932 52.8211L12.1628 13.9528Z" fill="#B5C4CF"/>
<path fill-rule="evenodd" clip-rule="evenodd" d="M23.9707 6.99362L11.999 9.04632C11.6377 9.10966 11.3918 9.45613 11.4552 9.82124L12.1629 13.9528L15.7276 34.7376L19.6051 57.3701C19.6685 57.7315 20.0187 57.9774 20.3799 57.9178L30.8841 56.1147L50.0932 52.8213L54.6115 52.0463H52.2462L23.9707 6.99362Z" fill="#D7E7EC"/>
<path fill-rule="evenodd" clip-rule="evenodd" d="M65 40.0912V9.00161V8.6775V8.56947C65 8.36825 64.9144 8.33472 64.6053 8.03296L56.9655 0.74585C56.6043 0.403077 56.5446 0.317383 56.3323 0.317383H55.8108H24.6672C24.2835 0.317383 23.9705 0.630324 23.9705 1.0141V51.3459C23.9705 51.7298 24.2835 52.0463 24.6672 52.0463H64.3035C64.687 52.0463 65 51.7298 65 51.3459V40.0912Z" fill="#EDF3F4"/>
<path fill-rule="evenodd" clip-rule="evenodd" d="M23.9707 6.99362L21.1659 7.47426V53.9205C21.1659 54.3079 21.4788 54.6208 21.8624 54.6208H32.9812H39.5965L50.0932 52.8215L54.6114 52.0465H52.2462H49.3371H35.7859H24.6673C24.2837 52.0465 23.9707 51.7298 23.9707 51.3461C23.9707 36.563 23.9707 21.7765 23.9707 6.99362Z" fill="#B5C4CF"/>
<path fill-rule="evenodd" clip-rule="evenodd" d="M15.7275 34.7376L12.1628 13.9528C11.1981 14.2769 10.237 14.601 9.27969 14.9251L9.72301 17.5069L13.2877 38.2917L17.1691 60.9243C17.2286 61.2856 17.5788 61.5314 17.94 61.472L28.4442 59.6689L33.428 58.8157L48.4393 53.4137L48.2606 53.1344L39.5965 54.6208L30.8841 56.1148L20.3799 57.9179C20.0187 57.9776 19.6685 57.7317 19.6051 57.3703L15.7275 34.7376Z" fill="#9AAFB7"/>
<path fill-rule="evenodd" clip-rule="evenodd" d="M65 40.0912V9.00161V8.6775C65 8.30122 64.8771 8.29753 64.6051 8.03296L56.9655 0.74585C56.6043 0.403077 56.5446 0.317383 56.3322 0.317383H55.8108H48.0592C57.5316 12.9991 58.0716 35.8589 51.0429 50.1277C50.7188 50.7908 50.3799 51.428 50.0259 52.0463H52.246H54.6114H64.3033C64.687 52.0463 65 51.7298 65 51.3459V40.0912Z" fill="#D7E7EC"/>
<path fill-rule="evenodd" clip-rule="evenodd" d="M55.8256 7.22821C55.8256 8.77424 57.2409 8.67737 57.9228 8.67737H65V8.56934C65 8.36812 64.9143 8.33461 64.6051 8.03283L56.9655 0.745728C56.6043 0.402955 56.5446 0.317261 56.3322 0.317261H55.8108L55.8256 7.22821Z" fill="white"/>
<path fill-rule="evenodd" clip-rule="evenodd" d="M64.6051 8.03296L56.9655 0.74585C56.6043 0.403077 56.5446 0.317383 56.3322 0.317383H55.8108L55.8256 7.22821C55.8256 8.77424 57.2409 8.67737 57.9228 8.67737H65V8.56934C65 8.36825 64.9143 8.33472 64.6051 8.03296Z" fill="#B5C4CF"/>
<path d="M58.7049 15.5525H30.6605C30.1187 15.5525 29.6796 15.1133 29.6796 14.5713C29.6796 14.0293 30.1187 13.5901 30.6605 13.5901H58.7049C59.2467 13.5901 59.6857 14.0293 59.6857 14.5713C59.6857 15.1133 59.2467 15.5525 58.7049 15.5525Z" fill="#9AAFB7"/>
<path d="M58.7049 22.5228H30.6605C30.1187 22.5228 29.6796 22.0836 29.6796 21.5417C29.6796 20.9997 30.1187 20.5605 30.6605 20.5605H58.7049C59.2467 20.5605 59.6857 20.9997 59.6857 21.5417C59.6857 22.0836 59.2467 22.5228 58.7049 22.5228Z" fill="#9AAFB7"/>
<path d="M58.7049 29.4934H30.6605C30.1187 29.4934 29.6796 29.0542 29.6796 28.5121C29.6796 27.9702 30.1187 27.5309 30.6605 27.5309H58.7049C59.2467 27.5309 59.6857 27.9702 59.6857 28.5121C59.6857 29.0542 59.2467 29.4934 58.7049 29.4934Z" fill="#9AAFB7"/>
<path d="M58.7049 36.4639H30.6605C30.1187 36.4639 29.6796 36.0246 29.6796 35.4827C29.6796 34.9408 30.1187 34.5015 30.6605 34.5015H58.7049C59.2467 34.5015 59.6857 34.9408 59.6857 35.4827C59.6857 36.0246 59.2467 36.4639 58.7049 36.4639Z" fill="#9AAFB7"/>
<path d="M58.7049 43.4343H30.6605C30.1187 43.4343 29.6796 42.9951 29.6796 42.4531C29.6796 41.9112 30.1187 41.472 30.6605 41.472H58.7049C59.2467 41.472 59.6857 41.9112 59.6857 42.4531C59.6857 42.9951 59.2467 43.4343 58.7049 43.4343Z" fill="#9AAFB7"/>
<path d="M121.914 25.038C121.914 19.773 118.521 16.575 112.71 16.575H101.556V43.875H104.988V33.462H112.71C118.521 33.462 121.914 30.303 121.914 25.038ZM118.326 25.038C118.326 28.743 116.61 30.342 112.437 30.342H104.988V19.734H112.437C116.61 19.734 118.326 21.333 118.326 25.038ZM141.968 24.141V27.768C140.837 25.233 137.99 23.595 134.675 23.595C129.254 23.595 125.276 27.924 125.276 34.008C125.276 40.092 129.254 44.421 134.675 44.421C137.99 44.421 140.837 42.783 141.968 40.248V43.875H145.244V24.141H141.968ZM142.124 34.008C142.124 36.153 141.5 37.947 140.252 39.312C139.043 40.677 137.405 41.379 135.416 41.379C133.427 41.379 131.789 40.677 130.541 39.312C129.332 37.947 128.708 36.153 128.708 34.008C128.708 31.863 129.332 30.069 130.541 28.704C131.789 27.339 133.427 26.637 135.416 26.637C137.405 26.637 139.043 27.339 140.252 28.704C141.5 30.069 142.124 31.863 142.124 34.008ZM172.242 34.008C172.242 27.924 168.264 23.595 162.882 23.595C159.567 23.595 156.759 25.233 155.55 27.768V24.141H152.274V51.675H155.55V40.248C156.759 42.783 159.567 44.421 162.882 44.421C168.264 44.421 172.242 40.092 172.242 34.008ZM168.81 34.008C168.81 36.153 168.186 37.947 166.938 39.312C165.729 40.677 164.091 41.379 162.102 41.379C160.113 41.379 158.475 40.677 157.227 39.312C156.018 37.947 155.394 36.153 155.394 34.008C155.394 31.863 156.018 30.069 157.227 28.704C158.475 27.339 160.113 26.637 162.102 26.637C164.091 26.637 165.729 27.339 166.938 28.704C168.186 30.069 168.81 31.863 168.81 34.008ZM195.613 35.022C195.691 34.437 195.73 33.852 195.73 33.267C195.73 27.534 191.83 23.595 186.331 23.595C180.52 23.595 176.464 28.002 176.464 34.047C176.464 40.17 180.637 44.421 186.604 44.421C190.231 44.421 193.273 42.861 195.184 40.17L192.961 38.298C191.323 40.365 189.217 41.379 186.682 41.379C182.821 41.379 180.169 38.961 179.818 35.022H195.613ZM179.896 32.37C180.481 28.821 182.86 26.637 186.331 26.637C189.763 26.637 192.064 28.743 192.376 32.37H179.896ZM212.329 24.102C211.822 23.907 211.198 23.829 210.535 23.829C207.61 23.829 205.426 25.311 204.529 27.846V24.141H201.253V43.875H204.529V33.774C204.529 29.133 206.752 26.871 210.613 26.871C211.198 26.871 211.744 26.91 212.329 26.988V24.102ZM212.54 41.808C212.54 43.212 213.476 44.187 214.88 44.187C216.284 44.187 217.22 43.212 217.22 41.808C217.22 40.443 216.284 39.507 214.88 39.507C213.476 39.507 212.54 40.443 212.54 41.808Z" fill="black"/>
<path d="M99.229 61.802C99.229 62.933 99.879 63.479 101.088 63.479C101.465 63.479 101.842 63.427 102.193 63.323V62.686C101.842 62.777 101.504 62.816 101.179 62.816C100.36 62.816 99.983 62.478 99.983 61.75V57.486H102.167V56.823H99.983V54.873H99.229V56.823H97.838V57.486H99.229V61.802ZM109.573 60.294C109.586 60.086 109.599 59.917 109.599 59.8C109.599 57.941 108.325 56.654 106.544 56.654C104.646 56.654 103.307 58.071 103.307 60.125C103.307 62.153 104.659 63.544 106.609 63.544C107.818 63.544 108.819 63.024 109.43 62.101L108.91 61.672C108.377 62.439 107.571 62.842 106.622 62.842C105.153 62.842 104.139 61.867 104.074 60.294H109.573ZM104.1 59.67C104.256 58.253 105.192 57.356 106.544 57.356C107.857 57.356 108.767 58.227 108.832 59.67H104.1ZM111.064 60.099C111.064 62.101 112.39 63.544 114.379 63.544C115.588 63.544 116.589 63.011 117.122 62.075L116.524 61.672C116.108 62.413 115.328 62.842 114.392 62.842C112.884 62.842 111.857 61.75 111.857 60.099C111.857 58.448 112.884 57.356 114.392 57.356C115.328 57.356 116.108 57.785 116.524 58.526L117.122 58.136C116.589 57.187 115.614 56.654 114.379 56.654C112.39 56.654 111.064 58.097 111.064 60.099ZM124.446 59.267C124.446 57.564 123.601 56.654 122.08 56.654C120.897 56.654 120 57.2 119.649 58.123V53.859H118.895V63.375H119.649V59.501C119.649 58.188 120.585 57.356 121.924 57.356C123.107 57.356 123.692 58.006 123.692 59.423V63.375H124.446V59.267ZM135.138 56.823L133.24 62.439L131.29 56.823H130.458L128.508 62.439L126.61 56.823H125.843L128.079 63.375H128.911L130.874 57.681L132.837 63.375H133.669L135.905 56.823H135.138ZM136.86 60.099C136.86 62.036 138.199 63.544 140.188 63.544C142.177 63.544 143.529 62.036 143.529 60.099C143.529 58.162 142.177 56.654 140.188 56.654C138.199 56.654 136.86 58.162 136.86 60.099ZM142.736 60.099C142.736 61.724 141.709 62.842 140.188 62.842C138.693 62.842 137.653 61.724 137.653 60.099C137.653 58.474 138.693 57.356 140.188 57.356C141.709 57.356 142.736 58.474 142.736 60.099ZM145.036 60.099C145.036 62.036 146.375 63.544 148.364 63.544C150.353 63.544 151.705 62.036 151.705 60.099C151.705 58.162 150.353 56.654 148.364 56.654C146.375 56.654 145.036 58.162 145.036 60.099ZM150.912 60.099C150.912 61.724 149.885 62.842 148.364 62.842C146.869 62.842 145.829 61.724 145.829 60.099C145.829 58.474 146.869 57.356 148.364 57.356C149.885 57.356 150.912 58.474 150.912 60.099ZM159.01 53.859V58.305C158.607 57.278 157.619 56.654 156.371 56.654C154.525 56.654 153.212 58.071 153.212 60.099C153.212 62.127 154.525 63.544 156.371 63.544C157.619 63.544 158.607 62.92 159.01 61.893V63.375H159.764V53.859H159.01ZM159.049 60.099C159.049 61.698 158.009 62.842 156.527 62.842C155.045 62.842 154.005 61.698 154.005 60.099C154.005 58.5 155.045 57.356 156.527 57.356C158.009 57.356 159.049 58.5 159.049 60.099ZM164.673 62.153C165.141 62.998 166.207 63.544 167.507 63.544C169.067 63.544 170.003 62.777 170.003 61.581C170.003 60.71 169.483 60.151 168.248 59.878L166.987 59.579C165.999 59.358 165.674 59.046 165.674 58.513C165.674 57.772 166.272 57.343 167.364 57.343C168.287 57.343 168.95 57.629 169.366 58.201L169.899 57.772C169.431 57.057 168.56 56.654 167.416 56.654C165.856 56.654 164.92 57.395 164.92 58.526C164.92 59.41 165.505 59.969 166.753 60.242L167.936 60.515C168.872 60.736 169.236 61.074 169.236 61.633C169.236 62.374 168.599 62.868 167.507 62.868C166.506 62.868 165.687 62.478 165.232 61.75L164.673 62.153ZM172.341 61.802C172.341 62.933 172.991 63.479 174.2 63.479C174.577 63.479 174.954 63.427 175.305 63.323V62.686C174.954 62.777 174.616 62.816 174.291 62.816C173.472 62.816 173.095 62.478 173.095 61.75V57.486H175.279V56.823H173.095V54.873H172.341V56.823H170.95V57.486H172.341V61.802ZM176.897 60.918C176.897 62.543 177.937 63.544 179.64 63.544C181.343 63.544 182.396 62.543 182.396 60.918V56.823H181.642V60.879C181.642 62.166 180.901 62.842 179.64 62.842C178.379 62.842 177.651 62.14 177.651 60.879V56.823H176.897V60.918ZM190.037 53.859V58.305C189.634 57.278 188.646 56.654 187.398 56.654C185.552 56.654 184.239 58.071 184.239 60.099C184.239 62.127 185.552 63.544 187.398 63.544C188.646 63.544 189.634 62.92 190.037 61.893V63.375H190.791V53.859H190.037ZM190.076 60.099C190.076 61.698 189.036 62.842 187.554 62.842C186.072 62.842 185.032 61.698 185.032 60.099C185.032 58.5 186.072 57.356 187.554 57.356C189.036 57.356 190.076 58.5 190.076 60.099ZM193.056 54.691C193.056 55.003 193.303 55.25 193.628 55.25C193.953 55.25 194.187 55.003 194.187 54.691C194.187 54.366 193.953 54.119 193.628 54.119C193.303 54.119 193.056 54.366 193.056 54.691ZM193.251 63.375H194.005V56.823H193.251V63.375ZM195.994 60.099C195.994 62.036 197.333 63.544 199.322 63.544C201.311 63.544 202.663 62.036 202.663 60.099C202.663 58.162 201.311 56.654 199.322 56.654C197.333 56.654 195.994 58.162 195.994 60.099ZM201.87 60.099C201.87 61.724 200.843 62.842 199.322 62.842C197.827 62.842 196.787 61.724 196.787 60.099C196.787 58.474 197.827 57.356 199.322 57.356C200.843 57.356 201.87 58.474 201.87 60.099Z" fill="#454545"/>
</svg>
