<svg width="306" height="90" viewBox="0 0 306 90" fill="none" xmlns="http://www.w3.org/2000/svg">
<path fill-rule="evenodd" clip-rule="evenodd" d="M11.8999 59.0287L0.053144 26.0872C-0.117012 25.6075 0.135585 25.076 0.615291 24.9007C16.1909 19.2988 33.7419 14.0887 48.7451 7.68709C49.4154 7.26416 49.9417 7.68199 50.2304 8.48143L68.8439 56.4599L73.8983 70.5166C74.0684 70.9963 73.8209 71.5327 73.3412 71.7032L37.7235 84.5113L23.8394 89.5048C23.3597 89.6803 22.8285 89.4276 22.6532 88.9477L11.8999 59.0287Z" fill="white"/>
<path fill-rule="evenodd" clip-rule="evenodd" d="M21.7766 48.0983L15.861 13.5986C15.7733 13.0931 16.1138 12.6134 16.614 12.5257L57.3532 5.54116L66.683 4.00396C67.1938 3.78211 68.024 4.03998 68.2198 5.1801L78.2976 55.5057L80.8198 70.2279C80.9075 70.7285 80.5669 71.2132 80.0667 71.3009L42.7624 77.6975L28.2182 80.1941C27.718 80.2766 27.2331 79.9362 27.1454 79.4358L21.7766 48.0983Z" fill="white"/>
<path fill-rule="evenodd" clip-rule="evenodd" d="M33.1902 37.9258V71.0944C33.1902 71.6258 33.6236 72.0641 34.1548 72.0641H49.5497H72.3409H75.6158H89.0357C89.5669 72.0641 90.0002 71.6258 90.0002 71.0944V55.5109V12.4638V12.015H80.2008C79.2572 12.015 77.2972 12.1491 77.2972 10.0085L77.2765 0.439453H34.1546C33.6234 0.439453 33.19 0.872756 33.19 1.40414V9.68344V13.1861V37.9258H33.1902Z" fill="white"/>
<path fill-rule="evenodd" clip-rule="evenodd" d="M16.8408 19.3192C11.3223 21.1764 5.85534 23.018 0.615291 24.9008C0.135585 25.076 -0.117012 25.6073 0.053144 26.087L11.8999 59.0288L22.6533 88.9477C22.8288 89.4274 23.36 89.6801 23.8395 89.5048L37.7235 84.5114L69.3599 73.1369L16.8408 19.3192Z" fill="#B5C4CF"/>
<path fill-rule="evenodd" clip-rule="evenodd" d="M33.1902 9.68347L16.614 12.5257C16.1138 12.6134 15.7733 13.0931 15.861 13.5986L16.841 19.3193L21.7767 48.0983L27.1456 79.4356C27.2333 79.936 27.7182 80.2764 28.2184 80.1938L42.7626 77.6972L69.3598 73.1372L75.616 72.0641H72.3409L33.1902 9.68347Z" fill="#D7E7EC"/>
<path fill-rule="evenodd" clip-rule="evenodd" d="M90 55.5109V12.4638V12.015V11.8654C90 11.5868 89.8815 11.5404 89.4535 11.1226L78.8754 1.03272C78.3752 0.558107 78.2926 0.439453 77.9985 0.439453H77.2765H34.1546C33.6234 0.439453 33.19 0.872756 33.19 1.40414V71.0944C33.19 71.6258 33.6234 72.0641 34.1546 72.0641H89.0357C89.5667 72.0641 90 71.6258 90 71.0944V55.5109Z" fill="#EDF3F4"/>
<path fill-rule="evenodd" clip-rule="evenodd" d="M33.1902 9.68347L29.3067 10.349V74.6591C29.3067 75.1955 29.7398 75.6288 30.2711 75.6288H45.6662H54.826L69.3598 73.1374L75.6157 72.0644H72.3409H68.3129H49.5497H34.1548C33.6236 72.0644 33.1902 71.6259 33.1902 71.0946C33.1902 50.6257 33.1902 30.152 33.1902 9.68347Z" fill="#B5C4CF"/>
<path fill-rule="evenodd" clip-rule="evenodd" d="M21.7766 48.0982L16.8408 19.3192C15.505 19.768 14.1744 20.2168 12.8488 20.6656L13.4626 24.2404L18.3984 53.0192L23.7726 84.3568C23.855 84.8569 24.3398 85.1974 24.84 85.115L39.3842 82.6184L46.285 81.4372L67.0698 73.9575L66.8223 73.5707L54.826 75.6288L42.7626 77.6974L28.2184 80.194C27.7182 80.2766 27.2333 79.9362 27.1456 79.4358L21.7766 48.0982Z" fill="#9AAFB7"/>
<path fill-rule="evenodd" clip-rule="evenodd" d="M90 55.5109V12.4638V12.015C90 11.494 89.8299 11.4889 89.4532 11.1226L78.8753 1.03272C78.3751 0.558107 78.2926 0.439453 77.9985 0.439453H77.2765H66.5435C79.6592 17.9988 80.4069 49.6507 70.6747 69.4075C70.2261 70.3258 69.7567 71.208 69.2667 72.0641H72.3406H75.6157H89.0354C89.5666 72.0641 90 71.6258 90 71.0944V55.5109Z" fill="#D7E7EC"/>
<path fill-rule="evenodd" clip-rule="evenodd" d="M77.297 10.0083C77.297 12.1489 79.2567 12.0148 80.2008 12.0148H90V11.8652C90 11.5866 89.8814 11.5402 89.4533 11.1224L78.8753 1.03255C78.3752 0.557939 78.2926 0.439285 77.9985 0.439285H77.2765L77.297 10.0083Z" fill="white"/>
<path fill-rule="evenodd" clip-rule="evenodd" d="M89.4533 11.1226L78.8753 1.03272C78.3752 0.558107 78.2926 0.439453 77.9985 0.439453H77.2765L77.297 10.0083C77.297 12.1489 79.2567 12.0148 80.2008 12.0148H90V11.8652C90 11.5868 89.8814 11.5404 89.4533 11.1226Z" fill="#B5C4CF"/>
<path d="M81.2837 21.5343H42.453C41.7029 21.5343 41.0949 20.9261 41.0949 20.1757C41.0949 19.4252 41.7029 18.817 42.453 18.817H81.2837C82.0339 18.817 82.6418 19.4252 82.6418 20.1757C82.6418 20.9261 82.0339 21.5343 81.2837 21.5343Z" fill="#9AAFB7"/>
<path d="M81.2837 31.1855H42.453C41.7029 31.1855 41.0949 30.5773 41.0949 29.8269C41.0949 29.0765 41.7029 28.4684 42.453 28.4684H81.2837C82.0339 28.4684 82.6418 29.0765 82.6418 29.8269C82.6418 30.5773 82.0339 31.1855 81.2837 31.1855Z" fill="#9AAFB7"/>
<path d="M81.2837 40.8371H42.453C41.7029 40.8371 41.0949 40.2289 41.0949 39.4783C41.0949 38.7279 41.7029 38.1198 42.453 38.1198H81.2837C82.0339 38.1198 82.6418 38.7279 82.6418 39.4783C82.6418 40.2289 82.0339 40.8371 81.2837 40.8371Z" fill="#9AAFB7"/>
<path d="M81.2837 50.4884H42.453C41.7029 50.4884 41.0949 49.8803 41.0949 49.1299C41.0949 48.3795 41.7029 47.7713 42.453 47.7713H81.2837C82.0339 47.7713 82.6418 48.3795 82.6418 49.1299C82.6418 49.8803 82.0339 50.4884 81.2837 50.4884Z" fill="#9AAFB7"/>
<path d="M81.2837 60.1398H42.453C41.7029 60.1398 41.0949 59.5316 41.0949 58.7813C41.0949 58.0309 41.7029 57.4227 42.453 57.4227H81.2837C82.0339 57.4227 82.6418 58.0309 82.6418 58.7813C82.6418 59.5316 82.0339 60.1398 81.2837 60.1398Z" fill="#9AAFB7"/>
<path d="M168.804 34.668C168.804 27.378 164.106 22.95 156.06 22.95H140.616V60.75H145.368V46.332H156.06C164.106 46.332 168.804 41.958 168.804 34.668ZM163.836 34.668C163.836 39.798 161.46 42.012 155.682 42.012H145.368V27.324H155.682C161.46 27.324 163.836 29.538 163.836 34.668ZM196.571 33.426V38.448C195.005 34.938 191.063 32.67 186.473 32.67C178.967 32.67 173.459 38.664 173.459 47.088C173.459 55.512 178.967 61.506 186.473 61.506C191.063 61.506 195.005 59.238 196.571 55.728V60.75H201.107V33.426H196.571ZM196.787 47.088C196.787 50.058 195.923 52.542 194.195 54.432C192.521 56.322 190.253 57.294 187.499 57.294C184.745 57.294 182.477 56.322 180.749 54.432C179.075 52.542 178.211 50.058 178.211 47.088C178.211 44.118 179.075 41.634 180.749 39.744C182.477 37.854 184.745 36.882 187.499 36.882C190.253 36.882 192.521 37.854 194.195 39.744C195.923 41.634 196.787 44.118 196.787 47.088ZM238.489 47.088C238.489 38.664 232.981 32.67 225.529 32.67C220.939 32.67 217.051 34.938 215.377 38.448V33.426H210.841V71.55H215.377V55.728C217.051 59.238 220.939 61.506 225.529 61.506C232.981 61.506 238.489 55.512 238.489 47.088ZM233.737 47.088C233.737 50.058 232.873 52.542 231.145 54.432C229.471 56.322 227.203 57.294 224.448 57.294C221.694 57.294 219.426 56.322 217.698 54.432C216.024 52.542 215.161 50.058 215.161 47.088C215.161 44.118 216.024 41.634 217.698 39.744C219.426 37.854 221.694 36.882 224.448 36.882C227.203 36.882 229.471 37.854 231.145 39.744C232.873 41.634 233.737 44.118 233.737 47.088ZM270.848 48.492C270.956 47.682 271.01 46.872 271.01 46.062C271.01 38.124 265.61 32.67 257.996 32.67C249.95 32.67 244.334 38.772 244.334 47.142C244.334 55.62 250.112 61.506 258.374 61.506C263.396 61.506 267.608 59.346 270.254 55.62L267.176 53.028C264.908 55.89 261.992 57.294 258.482 57.294C253.136 57.294 249.464 53.946 248.978 48.492H270.848ZM249.086 44.82C249.896 39.906 253.19 36.882 257.996 36.882C262.748 36.882 265.934 39.798 266.366 44.82H249.086ZM293.994 33.372C293.292 33.102 292.428 32.994 291.51 32.994C287.46 32.994 284.436 35.046 283.194 38.556V33.426H278.658V60.75H283.194V46.764C283.194 40.338 286.272 37.206 291.618 37.206C292.428 37.206 293.184 37.26 293.994 37.368V33.372ZM294.286 57.888C294.286 59.832 295.582 61.182 297.526 61.182C299.47 61.182 300.766 59.832 300.766 57.888C300.766 55.998 299.47 54.702 297.526 54.702C295.582 54.702 294.286 55.998 294.286 57.888Z" fill="black"/>
<path d="M137.394 85.572C137.394 87.138 138.294 87.894 139.968 87.894C140.49 87.894 141.012 87.822 141.498 87.678V86.796C141.012 86.922 140.544 86.976 140.094 86.976C138.96 86.976 138.438 86.508 138.438 85.5V79.596H141.462V78.678H138.438V75.978H137.394V78.678H135.468V79.596H137.394V85.572ZM151.716 83.484C151.734 83.196 151.752 82.962 151.752 82.8C151.752 80.226 149.988 78.444 147.522 78.444C144.894 78.444 143.04 80.406 143.04 83.25C143.04 86.058 144.912 87.984 147.612 87.984C149.286 87.984 150.672 87.264 151.518 85.986L150.798 85.392C150.06 86.454 148.944 87.012 147.63 87.012C145.596 87.012 144.192 85.662 144.102 83.484H151.716ZM144.138 82.62C144.354 80.658 145.65 79.416 147.522 79.416C149.34 79.416 150.6 80.622 150.69 82.62H144.138ZM153.78 83.214C153.78 85.986 155.616 87.984 158.37 87.984C160.044 87.984 161.43 87.246 162.168 85.95L161.34 85.392C160.764 86.418 159.684 87.012 158.388 87.012C156.3 87.012 154.878 85.5 154.878 83.214C154.878 80.928 156.3 79.416 158.388 79.416C159.684 79.416 160.764 80.01 161.34 81.036L162.168 80.496C161.43 79.182 160.08 78.444 158.37 78.444C155.616 78.444 153.78 80.442 153.78 83.214ZM172.31 82.062C172.31 79.704 171.14 78.444 169.034 78.444C167.396 78.444 166.154 79.2 165.668 80.478V74.574H164.624V87.75H165.668V82.386C165.668 80.568 166.964 79.416 168.818 79.416C170.456 79.416 171.266 80.316 171.266 82.278V87.75H172.31V82.062ZM187.115 78.678L184.487 86.454L181.787 78.678H180.635L177.935 86.454L175.307 78.678H174.245L177.341 87.75H178.493L181.211 79.866L183.929 87.75H185.081L188.177 78.678H187.115ZM189.499 83.214C189.499 85.896 191.353 87.984 194.107 87.984C196.861 87.984 198.733 85.896 198.733 83.214C198.733 80.532 196.861 78.444 194.107 78.444C191.353 78.444 189.499 80.532 189.499 83.214ZM197.635 83.214C197.635 85.464 196.213 87.012 194.107 87.012C192.037 87.012 190.597 85.464 190.597 83.214C190.597 80.964 192.037 79.416 194.107 79.416C196.213 79.416 197.635 80.964 197.635 83.214ZM200.819 83.214C200.819 85.896 202.673 87.984 205.427 87.984C208.181 87.984 210.053 85.896 210.053 83.214C210.053 80.532 208.181 78.444 205.427 78.444C202.673 78.444 200.819 80.532 200.819 83.214ZM208.955 83.214C208.955 85.464 207.533 87.012 205.427 87.012C203.357 87.012 201.917 85.464 201.917 83.214C201.917 80.964 203.357 79.416 205.427 79.416C207.533 79.416 208.955 80.964 208.955 83.214ZM220.168 74.574V80.73C219.61 79.308 218.242 78.444 216.514 78.444C213.958 78.444 212.14 80.406 212.14 83.214C212.14 86.022 213.958 87.984 216.514 87.984C218.242 87.984 219.61 87.12 220.168 85.698V87.75H221.212V74.574H220.168ZM220.222 83.214C220.222 85.428 218.782 87.012 216.73 87.012C214.678 87.012 213.238 85.428 213.238 83.214C213.238 81 214.678 79.416 216.73 79.416C218.782 79.416 220.222 81 220.222 83.214ZM228.008 86.058C228.656 87.228 230.132 87.984 231.932 87.984C234.092 87.984 235.388 86.922 235.388 85.266C235.388 84.06 234.668 83.286 232.958 82.908L231.212 82.494C229.844 82.188 229.394 81.756 229.394 81.018C229.394 79.992 230.222 79.398 231.734 79.398C233.012 79.398 233.93 79.794 234.506 80.586L235.244 79.992C234.596 79.002 233.39 78.444 231.806 78.444C229.646 78.444 228.35 79.47 228.35 81.036C228.35 82.26 229.16 83.034 230.888 83.412L232.526 83.79C233.822 84.096 234.326 84.564 234.326 85.338C234.326 86.364 233.444 87.048 231.932 87.048C230.546 87.048 229.412 86.508 228.782 85.5L228.008 86.058ZM238.626 85.572C238.626 87.138 239.526 87.894 241.2 87.894C241.722 87.894 242.244 87.822 242.73 87.678V86.796C242.244 86.922 241.776 86.976 241.326 86.976C240.192 86.976 239.67 86.508 239.67 85.5V79.596H242.694V78.678H239.67V75.978H238.626V78.678H236.7V79.596H238.626V85.572ZM244.935 84.348C244.935 86.598 246.375 87.984 248.733 87.984C251.091 87.984 252.549 86.598 252.549 84.348V78.678H251.505V84.294C251.505 86.076 250.479 87.012 248.733 87.012C246.987 87.012 245.979 86.04 245.979 84.294V78.678H244.935V84.348ZM263.129 74.574V80.73C262.571 79.308 261.203 78.444 259.475 78.444C256.919 78.444 255.101 80.406 255.101 83.214C255.101 86.022 256.919 87.984 259.475 87.984C261.203 87.984 262.571 87.12 263.129 85.698V87.75H264.173V74.574H263.129ZM263.183 83.214C263.183 85.428 261.743 87.012 259.691 87.012C257.639 87.012 256.199 85.428 256.199 83.214C256.199 81 257.639 79.416 259.691 79.416C261.743 79.416 263.183 81 263.183 83.214ZM267.309 75.726C267.309 76.158 267.651 76.5 268.101 76.5C268.551 76.5 268.875 76.158 268.875 75.726C268.875 75.276 268.551 74.934 268.101 74.934C267.651 74.934 267.309 75.276 267.309 75.726ZM267.579 87.75H268.623V78.678H267.579V87.75ZM271.377 83.214C271.377 85.896 273.231 87.984 275.985 87.984C278.739 87.984 280.611 85.896 280.611 83.214C280.611 80.532 278.739 78.444 275.985 78.444C273.231 78.444 271.377 80.532 271.377 83.214ZM279.513 83.214C279.513 85.464 278.091 87.012 275.985 87.012C273.915 87.012 272.475 85.464 272.475 83.214C272.475 80.964 273.915 79.416 275.985 79.416C278.091 79.416 279.513 80.964 279.513 83.214Z" fill="#454545"/>
</svg>
