<svg width="167" height="19" viewBox="0 0 167 19" fill="none" xmlns="http://www.w3.org/2000/svg">
	<path d="M6.72 0.999999C7.96 0.999999 9.03333 1.20667 9.94 1.62C10.86 2.03333 11.5667 2.62 12.06 3.38C12.5533 4.14 12.8 5.04 12.8 6.08C12.8 7.10667 12.5533 8.00667 12.06 8.78C11.5667 9.54 10.86 10.1267 9.94 10.54C9.03333 10.94 7.96 11.14 6.72 11.14H3.9V15H0.66V0.999999H6.72ZM6.54 8.5C7.51333 8.5 8.25333 8.29333 8.76 7.88C9.26667 7.45333 9.52 6.85333 9.52 6.08C9.52 5.29333 9.26667 4.69333 8.76 4.28C8.25333 3.85333 7.51333 3.64 6.54 3.64H3.9V8.5H6.54ZM19.1355 4.08C20.8021 4.08 22.0821 4.48 22.9755 5.28C23.8688 6.06667 24.3155 7.26 24.3155 8.86V15H21.3955V13.66C20.8088 14.66 19.7155 15.16 18.1155 15.16C17.2888 15.16 16.5688 15.02 15.9555 14.74C15.3555 14.46 14.8955 14.0733 14.5755 13.58C14.2555 13.0867 14.0955 12.5267 14.0955 11.9C14.0955 10.9 14.4688 10.1133 15.2155 9.54C15.9755 8.96667 17.1421 8.68 18.7155 8.68H21.1955C21.1955 8 20.9888 7.48 20.5755 7.12C20.1621 6.74667 19.5421 6.56 18.7155 6.56C18.1421 6.56 17.5755 6.65333 17.0155 6.84C16.4688 7.01333 16.0021 7.25333 15.6155 7.56L14.4955 5.38C15.0821 4.96667 15.7821 4.64667 16.5955 4.42C17.4221 4.19333 18.2688 4.08 19.1355 4.08ZM18.8955 13.06C19.4288 13.06 19.9021 12.94 20.3155 12.7C20.7288 12.4467 21.0221 12.08 21.1955 11.6V10.5H19.0555C17.7755 10.5 17.1355 10.92 17.1355 11.76C17.1355 12.16 17.2888 12.48 17.5955 12.72C17.9155 12.9467 18.3488 13.06 18.8955 13.06ZM33.4992 4.08C34.4992 4.08 35.4059 4.31333 36.2192 4.78C37.0459 5.23333 37.6926 5.88 38.1592 6.72C38.6259 7.54667 38.8592 8.51333 38.8592 9.62C38.8592 10.7267 38.6259 11.7 38.1592 12.54C37.6926 13.3667 37.0459 14.0133 36.2192 14.48C35.4059 14.9333 34.4992 15.16 33.4992 15.16C32.1259 15.16 31.0459 14.7267 30.2592 13.86V18.88H27.1392V4.24H30.1192V5.48C30.8926 4.54667 32.0192 4.08 33.4992 4.08ZM32.9592 12.6C33.7592 12.6 34.4126 12.3333 34.9192 11.8C35.4392 11.2533 35.6992 10.5267 35.6992 9.62C35.6992 8.71333 35.4392 7.99333 34.9192 7.46C34.4126 6.91333 33.7592 6.64 32.9592 6.64C32.1592 6.64 31.4992 6.91333 30.9792 7.46C30.4726 7.99333 30.2192 8.71333 30.2192 9.62C30.2192 10.5267 30.4726 11.2533 30.9792 11.8C31.4992 12.3333 32.1592 12.6 32.9592 12.6ZM51.4878 9.66C51.4878 9.7 51.4678 9.98 51.4278 10.5H43.2878C43.4345 11.1667 43.7811 11.6933 44.3278 12.08C44.8745 12.4667 45.5545 12.66 46.3678 12.66C46.9278 12.66 47.4211 12.58 47.8478 12.42C48.2878 12.2467 48.6945 11.98 49.0678 11.62L50.7278 13.42C49.7145 14.58 48.2345 15.16 46.2878 15.16C45.0745 15.16 44.0011 14.9267 43.0678 14.46C42.1345 13.98 41.4145 13.32 40.9078 12.48C40.4011 11.64 40.1478 10.6867 40.1478 9.62C40.1478 8.56667 40.3945 7.62 40.8878 6.78C41.3945 5.92667 42.0811 5.26667 42.9478 4.8C43.8278 4.32 44.8078 4.08 45.8878 4.08C46.9411 4.08 47.8945 4.30667 48.7478 4.76C49.6011 5.21333 50.2678 5.86667 50.7478 6.72C51.2411 7.56 51.4878 8.54 51.4878 9.66ZM45.9078 6.44C45.2011 6.44 44.6078 6.64 44.1278 7.04C43.6478 7.44 43.3545 7.98667 43.2478 8.68H48.5478C48.4411 8 48.1478 7.46 47.6678 7.06C47.1878 6.64667 46.6011 6.44 45.9078 6.44ZM56.545 5.66C56.9183 5.14 57.4183 4.74667 58.045 4.48C58.685 4.21333 59.4183 4.08 60.245 4.08V6.96C59.8983 6.93333 59.665 6.92 59.545 6.92C58.6517 6.92 57.9517 7.17333 57.445 7.68C56.9383 8.17333 56.685 8.92 56.685 9.92V15H53.565V4.24H56.545V5.66ZM68.315 0.159999H69.255V18.88H68.315V0.159999ZM83.092 15.08C82.0787 15.08 81.172 14.8533 80.372 14.4C79.572 13.9467 78.9454 13.32 78.492 12.52C78.0387 11.7067 77.812 10.7933 77.812 9.78C77.812 8.75333 78.0387 7.84 78.492 7.04C78.9454 6.22667 79.572 5.6 80.372 5.16C81.172 4.70667 82.0787 4.48 83.092 4.48C83.932 4.48 84.692 4.64667 85.372 4.98C86.0654 5.3 86.6254 5.77333 87.052 6.4L86.312 6.94C85.9387 6.42 85.472 6.03333 84.912 5.78C84.3654 5.51333 83.7587 5.38 83.092 5.38C82.2787 5.38 81.5454 5.56667 80.892 5.94C80.252 6.3 79.7454 6.81333 79.372 7.48C79.012 8.14667 78.832 8.91333 78.832 9.78C78.832 10.6467 79.012 11.4133 79.372 12.08C79.7454 12.7467 80.252 13.2667 80.892 13.64C81.5454 14 82.2787 14.18 83.092 14.18C83.7587 14.18 84.3654 14.0533 84.912 13.8C85.472 13.5333 85.9387 13.14 86.312 12.62L87.052 13.16C86.6254 13.7867 86.0654 14.2667 85.372 14.6C84.692 14.92 83.932 15.08 83.092 15.08ZM94.97 4.48C96.2767 4.48 97.31 4.86 98.07 5.62C98.83 6.38 99.21 7.47333 99.21 8.9V15H98.21V8.98C98.21 7.80667 97.91 6.91333 97.31 6.3C96.7233 5.68667 95.8967 5.38 94.83 5.38C93.6033 5.38 92.6367 5.74667 91.93 6.48C91.2233 7.21333 90.87 8.2 90.87 9.44V15H89.87V0.159999H90.87V6.74C91.23 6.02 91.7633 5.46667 92.47 5.08C93.1767 4.68 94.01 4.48 94.97 4.48ZM112.167 10.02H103.187C103.213 10.8333 103.42 11.56 103.807 12.2C104.193 12.8267 104.713 13.3133 105.367 13.66C106.033 14.0067 106.78 14.18 107.607 14.18C108.287 14.18 108.913 14.06 109.487 13.82C110.073 13.5667 110.56 13.2 110.947 12.72L111.527 13.38C111.073 13.9267 110.5 14.3467 109.807 14.64C109.127 14.9333 108.387 15.08 107.587 15.08C106.547 15.08 105.62 14.8533 104.807 14.4C103.993 13.9467 103.353 13.32 102.887 12.52C102.433 11.72 102.207 10.8067 102.207 9.78C102.207 8.76667 102.42 7.86 102.847 7.06C103.287 6.24667 103.887 5.61333 104.647 5.16C105.407 4.70667 106.26 4.48 107.207 4.48C108.153 4.48 109 4.70667 109.747 5.16C110.507 5.6 111.1 6.22 111.527 7.02C111.967 7.82 112.187 8.72667 112.187 9.74L112.167 10.02ZM107.207 5.36C106.473 5.36 105.813 5.52667 105.227 5.86C104.64 6.18 104.167 6.64 103.807 7.24C103.46 7.82667 103.26 8.49333 103.207 9.24H111.207C111.167 8.49333 110.967 7.82667 110.607 7.24C110.247 6.65333 109.773 6.19333 109.187 5.86C108.6 5.52667 107.94 5.36 107.207 5.36ZM119.42 15.08C118.407 15.08 117.5 14.8533 116.7 14.4C115.9 13.9467 115.273 13.32 114.82 12.52C114.367 11.7067 114.14 10.7933 114.14 9.78C114.14 8.75333 114.367 7.84 114.82 7.04C115.273 6.22667 115.9 5.6 116.7 5.16C117.5 4.70667 118.407 4.48 119.42 4.48C120.26 4.48 121.02 4.64667 121.7 4.98C122.393 5.3 122.953 5.77333 123.38 6.4L122.64 6.94C122.267 6.42 121.8 6.03333 121.24 5.78C120.693 5.51333 120.087 5.38 119.42 5.38C118.607 5.38 117.873 5.56667 117.22 5.94C116.58 6.3 116.073 6.81333 115.7 7.48C115.34 8.14667 115.16 8.91333 115.16 9.78C115.16 10.6467 115.34 11.4133 115.7 12.08C116.073 12.7467 116.58 13.2667 117.22 13.64C117.873 14 118.607 14.18 119.42 14.18C120.087 14.18 120.693 14.0533 121.24 13.8C121.8 13.5333 122.267 13.14 122.64 12.62L123.38 13.16C122.953 13.7867 122.393 14.2667 121.7 14.6C121.02 14.92 120.26 15.08 119.42 15.08ZM129.918 9.42L127.198 11.9V15H126.198V0.159999H127.198V10.66L133.878 4.56H135.158L130.658 8.78L135.598 15H134.358L129.918 9.42ZM137.956 0.159999H138.956V15H137.956V0.159999ZM143.171 4.56H144.171V15H143.171V4.56ZM143.671 2.02C143.444 2.02 143.251 1.94667 143.091 1.8C142.931 1.64 142.851 1.44667 142.851 1.22C142.851 0.993333 142.931 0.799999 143.091 0.639999C143.251 0.479999 143.444 0.4 143.671 0.4C143.897 0.4 144.091 0.479999 144.251 0.639999C144.411 0.786666 144.491 0.973333 144.491 1.2C144.491 1.42667 144.411 1.62 144.251 1.78C144.091 1.94 143.897 2.02 143.671 2.02ZM151.026 15.08C150.186 15.08 149.386 14.9533 148.626 14.7C147.866 14.4467 147.272 14.1267 146.846 13.74L147.306 12.94C147.732 13.3 148.279 13.6 148.946 13.84C149.626 14.08 150.332 14.2 151.066 14.2C152.119 14.2 152.892 14.0267 153.386 13.68C153.892 13.3333 154.146 12.8533 154.146 12.24C154.146 11.8 154.006 11.4533 153.726 11.2C153.459 10.9467 153.126 10.76 152.726 10.64C152.326 10.52 151.772 10.3933 151.066 10.26C150.239 10.1133 149.572 9.95333 149.066 9.78C148.559 9.60667 148.126 9.32667 147.766 8.94C147.406 8.55333 147.226 8.02 147.226 7.34C147.226 6.51333 147.566 5.83333 148.246 5.3C148.939 4.75333 149.919 4.48 151.186 4.48C151.852 4.48 152.512 4.57333 153.166 4.76C153.819 4.94667 154.352 5.19333 154.766 5.5L154.306 6.3C153.879 5.99333 153.392 5.76 152.846 5.6C152.299 5.44 151.739 5.36 151.166 5.36C150.192 5.36 149.459 5.54 148.966 5.9C148.472 6.26 148.226 6.73333 148.226 7.32C148.226 7.78667 148.366 8.15333 148.646 8.42C148.926 8.67333 149.266 8.86667 149.666 9C150.079 9.12 150.652 9.25333 151.386 9.4C152.199 9.54667 152.852 9.70667 153.346 9.88C153.852 10.04 154.279 10.3067 154.626 10.68C154.972 11.0533 155.146 11.5667 155.146 12.22C155.146 13.0867 154.786 13.78 154.066 14.3C153.346 14.82 152.332 15.08 151.026 15.08ZM163.116 14.34C162.863 14.58 162.543 14.7667 162.156 14.9C161.783 15.02 161.39 15.08 160.976 15.08C160.07 15.08 159.37 14.8333 158.876 14.34C158.383 13.8333 158.136 13.1333 158.136 12.24V5.42H156.216V4.56H158.136V2.28H159.136V4.56H162.456V5.42H159.136V12.14C159.136 12.82 159.296 13.34 159.616 13.7C159.95 14.0467 160.436 14.22 161.076 14.22C161.73 14.22 162.27 14.0267 162.696 13.64L163.116 14.34ZM165.98 15.08C165.754 15.08 165.554 15 165.38 14.84C165.22 14.6667 165.14 14.46 165.14 14.22C165.14 13.98 165.22 13.78 165.38 13.62C165.554 13.46 165.754 13.38 165.98 13.38C166.207 13.38 166.4 13.46 166.56 13.62C166.734 13.78 166.82 13.98 166.82 14.22C166.82 14.46 166.734 14.6667 166.56 14.84C166.4 15 166.207 15.08 165.98 15.08Z" fill="black"/>
</svg>
